<svg width="149" height="42" viewBox="0 0 149 42" fill="none" xmlns="http://www.w3.org/2000/svg">
<g clip-path="url(#clip0_1036_818)">
<path d="M93.0269 15.5093H94.6601V24.2266H93.0269V15.5093Z" fill="white"/>
<path d="M8.04688 14.5366C8.04688 12.4369 9.68012 10.7417 11.7032 10.7417H22.6724L22.2641 12.4177H11.7032C10.5897 12.4177 9.66169 13.3615 9.66169 14.5366V20.4315C9.66169 21.5872 10.5897 22.5504 11.7032 22.5504C12.5197 22.5312 13.485 22.5312 14.5243 22.5312C16.6216 22.5312 18.9787 22.5119 20.612 22.5504C21.7441 22.5119 22.6721 21.6257 22.6721 20.4315V18.3317H14.5428L14.951 16.6363H24.2869V20.4315C24.2869 22.5312 22.6537 24.2264 20.6306 24.2264H20.5935C18.9601 24.2072 16.6029 24.2072 14.5428 24.2264C13.5221 24.2264 12.5755 24.2264 11.7774 24.2264H11.7032C9.68012 24.2264 8.04688 22.5312 8.04688 20.4315V14.5366Z" fill="white"/>
<path d="M26.8198 24.2264V10.7417H28.4531V16.7518H41.4455V10.7417H43.0601V24.2264H41.4455V18.4472H28.4531V24.2264H26.8198Z" fill="white"/>
<path d="M54.1334 11.541L60.9429 24.2264H59.0685L53.4739 13.8023C53.1858 13.2656 52.442 13.2661 52.1545 13.8033L46.5771 24.2264H44.7026L51.5122 11.541C51.7772 11.0476 52.2787 10.7417 52.8229 10.7417C53.3671 10.7417 53.8686 11.0476 54.1334 11.541Z" fill="white"/>
<path d="M115.735 11.5683L122.545 24.2537H120.671L115.076 13.8297C114.788 13.293 114.044 13.2934 113.757 13.8306L108.179 24.2537H106.305L113.114 11.5683C113.379 11.075 113.881 10.769 114.425 10.769C114.969 10.769 115.47 11.075 115.735 11.5683Z" fill="white"/>
<path d="M65.9221 12.3274C65.0239 12.3274 64.2886 13.0902 64.2886 14.0228V24.2267H62.6738V14.0225C62.6738 12.1607 64.1281 10.6514 65.9219 10.6514H73.0828C74.8766 10.6514 76.3309 12.1607 76.3309 14.0225V24.2264H74.7161V14.0225C74.7161 13.0902 73.9811 12.3272 73.0826 12.3272H65.9221V12.3274Z" fill="white"/>
<path d="M79.209 10.7417H80.8422V24.2264H79.209V10.7417Z" fill="white"/>
<path d="M86.5837 12.3274C85.6855 12.3274 84.9503 13.0902 84.9503 14.0228V24.2267H83.3354V14.0225C83.3354 12.1607 84.7897 10.6514 86.5835 10.6514H101.31C103.103 10.6514 104.558 12.1607 104.558 14.0225V24.2264H102.943V14.0225C102.943 13.0902 102.208 12.3272 101.309 12.3272H86.5837V12.3274Z" fill="white"/>
<path d="M124.454 24.2264V10.7417H126.088V16.7518H139.08V10.7417H140.694V24.2264H139.08V18.4472H126.088V24.2264H124.454Z" fill="white"/>
<path d="M22.3647 34.4478V32.0452H22.747V34.4478C22.7593 34.4688 22.7802 34.4946 22.8098 34.5254C22.8898 34.6017 22.9846 34.6399 23.0942 34.6399C23.2038 34.6399 23.2986 34.6011 23.3786 34.5235C23.4586 34.4447 23.4986 34.3506 23.4986 34.241V32.0452H23.8827V34.2558C23.8778 34.4638 23.8009 34.6423 23.6519 34.7913C23.498 34.9464 23.3121 35.024 23.0942 35.024C22.8775 35.024 22.6984 34.9477 22.5568 34.795C22.414 34.9477 22.2342 35.024 22.0175 35.024C21.7996 35.024 21.6143 34.9464 21.4617 34.7913C21.3115 34.6436 21.2345 34.4651 21.2308 34.2558V32.0452H21.6131V34.241C21.6131 34.3506 21.6531 34.4447 21.7332 34.5235C21.8132 34.6011 21.908 34.6399 22.0175 34.6399C22.1284 34.6399 22.2232 34.6017 22.3019 34.5254C22.3327 34.4946 22.3537 34.4688 22.3647 34.4478ZM27.1644 32.0064C27.5818 32.0064 27.9382 32.1542 28.2336 32.4497C28.5291 32.7451 28.6769 33.1016 28.6769 33.5189C28.6769 33.9363 28.5291 34.2927 28.2336 34.5882C27.9382 34.8837 27.5818 35.0314 27.1644 35.0314C26.747 35.0314 26.3906 34.8837 26.0951 34.5882C25.7997 34.2927 25.6519 33.9363 25.6519 33.5189C25.6519 33.1016 25.7997 32.7451 26.0951 32.4497C26.3906 32.1542 26.747 32.0064 27.1644 32.0064ZM27.1644 32.3924C26.8529 32.3924 26.587 32.5026 26.3666 32.723C26.1475 32.9421 26.0379 33.2074 26.0379 33.5189C26.0379 33.8304 26.1481 34.0963 26.3684 34.3167C26.5888 34.5371 26.8541 34.6473 27.1644 34.6473C27.4759 34.6473 27.7412 34.5371 27.9603 34.3167C28.1807 34.0963 28.2909 33.8304 28.2909 33.5189C28.2909 33.2074 28.1807 32.9421 27.9603 32.723C27.7412 32.5026 27.4759 32.3924 27.1644 32.3924ZM30.8782 32.4293V33.6704H31.2272C31.3971 33.6704 31.5424 33.61 31.663 33.4894C31.7849 33.3675 31.8459 33.2204 31.8459 33.048C31.8459 32.8769 31.7849 32.731 31.663 32.6103C31.5424 32.4897 31.3971 32.4293 31.2272 32.4293H30.8782ZM31.2272 34.0545H30.8782V35H30.4959V32.0452H31.3343C31.5719 32.0772 31.7726 32.1751 31.9363 32.3389C32.1321 32.5358 32.23 32.7722 32.23 33.048C32.23 33.3262 32.1321 33.5639 31.9363 33.7608C31.8009 33.8963 31.6975 33.9726 31.6261 33.9898L32.2817 35H31.8182L31.2272 34.0545ZM33.9678 35V32.0452H34.35V34.6159H35.4064V35H33.9678ZM37.5412 32.4349V34.6122C37.8453 34.6122 38.0946 34.5143 38.2891 34.3186C38.5082 34.0994 38.6178 33.8341 38.6178 33.5226C38.6178 33.2124 38.5082 32.947 38.2891 32.7267C38.0946 32.5322 37.8453 32.4349 37.5412 32.4349ZM37.4396 32.0452C37.9198 32.0477 38.294 32.1837 38.5624 32.4534C38.8567 32.7501 39.0038 33.1065 39.0038 33.5226C39.0038 33.94 38.8567 34.2964 38.5624 34.5919C38.294 34.8615 37.9198 34.9975 37.4396 35H37.1589V32.0452H37.4396ZM43.8293 32.0452L44.7877 33.7017L45.7425 32.0452H46.0915V35H45.7093V32.8652L44.7877 34.4608L43.8625 32.8652V35H43.4803V32.0452H43.8293ZM49.5098 32.0064C49.9272 32.0064 50.2836 32.1542 50.5791 32.4497C50.8746 32.7451 51.0223 33.1016 51.0223 33.5189C51.0223 33.9363 50.8746 34.2927 50.5791 34.5882C50.2836 34.8837 49.9272 35.0314 49.5098 35.0314C49.0925 35.0314 48.7361 34.8837 48.4406 34.5882C48.1451 34.2927 47.9974 33.9363 47.9974 33.5189C47.9974 33.1016 48.1451 32.7451 48.4406 32.4497C48.7361 32.1542 49.0925 32.0064 49.5098 32.0064ZM49.5098 32.3924C49.1984 32.3924 48.9324 32.5026 48.7121 32.723C48.4929 32.9421 48.3833 33.2074 48.3833 33.5189C48.3833 33.8304 48.4935 34.0963 48.7139 34.3167C48.9343 34.5371 49.1996 34.6473 49.5098 34.6473C49.8213 34.6473 50.0866 34.5371 50.3058 34.3167C50.5262 34.0963 50.6364 33.8304 50.6364 33.5189C50.6364 33.2074 50.5262 32.9421 50.3058 32.723C50.0866 32.5026 49.8213 32.3924 49.5098 32.3924ZM53.593 33.4838C53.3837 33.4137 53.2138 33.3139 53.0833 33.1847C52.954 33.0542 52.8894 32.8929 52.8894 32.7008C52.8894 32.5125 52.9565 32.3506 53.0907 32.2151C53.2261 32.0797 53.3898 32.012 53.5819 32.012C53.7715 32.012 53.934 32.0791 54.0694 32.2133C54.1458 32.2872 54.2098 32.4047 54.2615 32.566L53.9143 32.7027C53.8724 32.5894 53.8343 32.5155 53.7998 32.4811C53.7395 32.422 53.6668 32.3924 53.5819 32.3924C53.4957 32.3924 53.4225 32.4226 53.3621 32.4829C53.3018 32.542 53.2716 32.6146 53.2716 32.7008C53.2716 32.787 53.3018 32.8603 53.3621 32.9206C53.4298 32.9871 53.5234 33.048 53.6428 33.1034C53.8743 33.1785 54.0707 33.2967 54.2319 33.458C54.4129 33.6365 54.5034 33.8532 54.5034 34.108C54.5034 34.3629 54.4129 34.5808 54.2319 34.7618C54.0522 34.9415 53.8355 35.0314 53.5819 35.0314C53.327 35.0314 53.1097 34.9409 52.93 34.7599C52.7859 34.6159 52.6948 34.417 52.6567 34.1634L53.0279 34.0286C53.0513 34.2465 53.1085 34.401 53.1996 34.4921C53.3055 34.598 53.4329 34.651 53.5819 34.651C53.7309 34.651 53.8583 34.598 53.9642 34.4921C54.07 34.3863 54.123 34.2582 54.123 34.108C54.123 33.9591 54.07 33.8316 53.9642 33.7258C53.8632 33.6248 53.7395 33.5442 53.593 33.4838ZM57.0242 32.4275V35H56.6401V32.4275H55.9512V32.0452H57.713V32.4275H57.0242ZM63.2144 33.5725L62.9614 32.88L62.7103 33.5725H63.2144ZM63.0649 32.0452L64.1396 35H63.7334L63.3529 33.9547H62.5699L62.1913 35H61.7832L62.858 32.0452H63.0649ZM66.1988 32.4349V34.6122C66.5029 34.6122 66.7522 34.5143 66.9467 34.3186C67.1658 34.0994 67.2754 33.8341 67.2754 33.5226C67.2754 33.2124 67.1658 32.947 66.9467 32.7267C66.7522 32.5322 66.5029 32.4349 66.1988 32.4349ZM66.0972 32.0452C66.5773 32.0477 66.9516 32.1837 67.22 32.4534C67.5142 32.7501 67.6614 33.1065 67.6614 33.5226C67.6614 33.94 67.5142 34.2964 67.22 34.5919C66.9516 34.8615 66.5773 34.9975 66.0972 35H65.8165V32.0452H66.0972ZM70.1729 35L69.1 32.0452H69.5063L70.2763 34.1634L71.0483 32.0452H71.4564L70.3798 35H70.1729ZM74.3428 33.5725L74.0898 32.88L73.8387 33.5725H74.3428ZM74.1933 32.0452L75.2681 35H74.8618L74.4813 33.9547H73.6983L73.3198 35H72.9116L73.9864 32.0452H74.1933ZM76.9449 32.0452H77.2939L78.5128 34.1542V32.0452H78.8969V35H78.5626L77.3272 32.8652V35H76.9449V32.0452ZM83.0465 34.2964L83.3327 34.5531C82.9831 34.872 82.6131 35.0314 82.2228 35.0314C81.8055 35.0314 81.4497 34.8843 81.1554 34.59C80.8612 34.2958 80.7141 33.94 80.7141 33.5226C80.7141 33.1065 80.8612 32.7507 81.1554 32.4552C81.4497 32.1597 81.8055 32.012 82.2228 32.012C82.6131 32.012 82.9831 32.1714 83.3327 32.4903L83.0465 32.7507C82.783 32.5168 82.5085 32.3998 82.2228 32.3998C81.9138 32.3998 81.6491 32.5094 81.4288 32.7285C81.2096 32.9477 81.1 33.2124 81.1 33.5226C81.1 33.8341 81.2096 34.0994 81.4288 34.3186C81.6491 34.5377 81.9138 34.6473 82.2228 34.6473C82.5085 34.6473 82.783 34.5303 83.0465 34.2964ZM86.6919 32.0452V32.4275H85.4823V33.3306H86.6919V33.7128H85.4823V34.6159H86.6919V35H85.1001V32.0452H86.6919ZM88.8914 32.4349V34.6122C89.1955 34.6122 89.4448 34.5143 89.6393 34.3186C89.8585 34.0994 89.968 33.8341 89.968 33.5226C89.968 33.2124 89.8585 32.947 89.6393 32.7267C89.4448 32.5322 89.1955 32.4349 88.8914 32.4349ZM88.7898 32.0452C89.27 32.0477 89.6443 32.1837 89.9126 32.4534C90.2069 32.7501 90.354 33.1065 90.354 33.5226C90.354 33.94 90.2069 34.2964 89.9126 34.5919C89.6443 34.8615 89.27 34.9975 88.7898 35H88.5091V32.0452H88.7898ZM95.1223 34.0545V35H94.74V32.0452H95.5784C95.816 32.0772 96.0167 32.1751 96.1804 32.3389C96.3762 32.5358 96.4741 32.7722 96.4741 33.048C96.4741 33.3262 96.3762 33.5639 96.1804 33.7608C95.9847 33.9566 95.7483 34.0545 95.4713 34.0545H95.1223ZM95.1223 32.4293V33.6704H95.4713C95.6412 33.6704 95.7865 33.61 95.9071 33.4894C96.029 33.3675 96.09 33.2204 96.09 33.048C96.09 32.8769 96.029 32.731 95.9071 32.6103C95.7865 32.4897 95.6412 32.4293 95.4713 32.4293H95.1223ZM98.1638 35V32.0452H98.5461V34.6159H99.6024V35H98.1638ZM102.565 33.5725L102.312 32.88L102.06 33.5725H102.565ZM102.415 32.0452L103.49 35H103.084L102.703 33.9547H101.92L101.542 35H101.133L102.208 32.0452H102.415ZM105.892 33.8144L104.871 32.0452H105.311L106.083 33.3823L106.856 32.0452H107.298L106.275 33.8144V35H105.892V33.8144ZM111.481 34.5956C111.177 34.8861 110.829 35.0314 110.437 35.0314C110.02 35.0314 109.664 34.8843 109.37 34.59C109.076 34.2958 108.928 33.94 108.928 33.5226C108.928 33.1065 109.076 32.7507 109.37 32.4552C109.664 32.1597 110.02 32.012 110.437 32.012C110.827 32.012 111.197 32.1714 111.547 32.4903L111.261 32.7507C110.997 32.5168 110.723 32.3998 110.437 32.3998C110.128 32.3998 109.863 32.5094 109.643 32.7285C109.424 32.9477 109.314 33.2124 109.314 33.5226C109.314 33.8341 109.424 34.0994 109.643 34.3186C109.863 34.5377 110.128 34.6473 110.437 34.6473C110.703 34.6473 110.924 34.5771 111.098 34.4367V33.5448H111.481V34.5956ZM113.745 32.4293V33.6704H114.094C114.264 33.6704 114.409 33.61 114.53 33.4894C114.651 33.3675 114.712 33.2204 114.712 33.048C114.712 32.8769 114.651 32.731 114.53 32.6103C114.409 32.4897 114.264 32.4293 114.094 32.4293H113.745ZM114.094 34.0545H113.745V35H113.362V32.0452H114.201C114.438 32.0772 114.639 32.1751 114.803 32.3389C114.999 32.5358 115.097 32.7722 115.097 33.048C115.097 33.3262 114.999 33.5639 114.803 33.7608C114.667 33.8963 114.564 33.9726 114.493 33.9898L115.148 35H114.685L114.094 34.0545ZM118.301 32.0064C118.718 32.0064 119.074 32.1542 119.37 32.4497C119.665 32.7451 119.813 33.1016 119.813 33.5189C119.813 33.9363 119.665 34.2927 119.37 34.5882C119.074 34.8837 118.718 35.0314 118.301 35.0314C117.883 35.0314 117.527 34.8837 117.231 34.5882C116.936 34.2927 116.788 33.9363 116.788 33.5189C116.788 33.1016 116.936 32.7451 117.231 32.4497C117.527 32.1542 117.883 32.0064 118.301 32.0064ZM118.301 32.3924C117.989 32.3924 117.723 32.5026 117.503 32.723C117.284 32.9421 117.174 33.2074 117.174 33.5189C117.174 33.8304 117.284 34.0963 117.505 34.3167C117.725 34.5371 117.99 34.6473 118.301 34.6473C118.612 34.6473 118.877 34.5371 119.097 34.3167C119.317 34.0963 119.427 33.8304 119.427 33.5189C119.427 33.2074 119.317 32.9421 119.097 32.723C118.877 32.5026 118.612 32.3924 118.301 32.3924ZM123.257 32.0452H123.641V34.1265C123.608 34.3641 123.51 34.5648 123.348 34.7285C123.151 34.9255 122.914 35.024 122.637 35.024C122.36 35.024 122.123 34.9261 121.926 34.7304C121.73 34.5334 121.632 34.2964 121.632 34.0194V32.0452H122.016V34.0194C122.016 34.1893 122.077 34.3352 122.197 34.4571C122.319 34.5777 122.466 34.638 122.637 34.638C122.809 34.638 122.956 34.5777 123.076 34.4571C123.197 34.3364 123.257 34.1905 123.257 34.0194V32.0452ZM125.503 32.0452H125.852L127.071 34.1542V32.0452H127.455V35H127.121L125.885 32.8652V35H125.503V32.0452ZM129.7 32.4349V34.6122C130.005 34.6122 130.254 34.5143 130.448 34.3186C130.668 34.0994 130.777 33.8341 130.777 33.5226C130.777 33.2124 130.668 32.947 130.448 32.7267C130.254 32.5322 130.005 32.4349 129.7 32.4349ZM129.599 32.0452C130.079 32.0477 130.453 32.1837 130.722 32.4534C131.016 32.7501 131.163 33.1065 131.163 33.5226C131.163 33.94 131.016 34.2964 130.722 34.5919C130.453 34.8615 130.079 34.9975 129.599 35H129.318V32.0452H129.599Z" fill="white"/>
<path d="M21.7212 28.4038H127.006" stroke="white" stroke-width="0.230539" stroke-miterlimit="10"/>
<path d="M127.124 28.1733H120.016V28.6344H127.124V28.1733Z" fill="white"/>
<path d="M28.725 28.1733H21.6172V28.6344H28.725V28.1733Z" fill="white"/>
</g>
<defs>
<clipPath id="clip0_1036_818">
<rect width="148.376" height="41.2665" fill="white"/>
</clipPath>
</defs>
</svg>
